# xmcd CD database file
#
# Track frame offsets:
#	150
#	17085
#	31035
#	47252
#	60747
#	77705
#	92275
#	110290
#	127137
#	142925
#	158060
#	177432
#	192662
#	205787
#	226337
#	244982
#
# Disc length: 3447 seconds
#
# Revision: 0
# Processed by: cddbd v1.5.2PL0 Copyright (c) Steve Scherf et al.
# Submitted via: CDex 1.70beta2
#
DISCID=ca0d7510
DTITLE=布施明 - ベストヒット集
DYEAR=1985
DGENRE=歌謡曲
TTITLE0=愛の園
TTITLE1=霧の摩周湖
TTITLE2=銀の涙
TTITLE3=バラ色の月
TTITLE4=恋
TTITLE5=涙をおふき
TTITLE6=おもいで
TTITLE7=白いラブレター
TTITLE8=愛の香り
TTITLE9=華麗なる誘惑
TTITLE10=愛すれど切なく
TTITLE11=何故
TTITLE12=甘い十字架
TTITLE13=シクラメンのかほり
TTITLE14=マイ・ウェイ
TTITLE15=そっとおやすみ
EXTD=YEAR: 1985
EXTT0=
EXTT1=
EXTT2=
EXTT3=
EXTT4=
EXTT5=
EXTT6=
EXTT7=
EXTT8=
EXTT9=
EXTT10=
EXTT11=
EXTT12=
EXTT13=
EXTT14=
EXTT15=
PLAYORDER=
